<svg width="30" height="30" xmlns="http://www.w3.org/2000/svg" clip-rule="evenodd">

 <g>
  <title>background</title>
  <rect fill="none" id="canvas_background" height="32" width="32" y="-1" x="-1"/>
 </g>
 <g>
  <title>Layer 1</title>
  <path stroke="null" fill="#ffffff" id="svg_1" d="m26.137192,0c2.007775,0 3.637781,1.630063 3.637781,3.637781l0,22.499412c0,2.007717 -1.630063,3.637781 -3.637781,3.637781l-22.499412,0c-2.007717,0 -3.637781,-1.630063 -3.637781,-3.637781l0,-22.499412c0,-2.007717 1.630005,-3.637781 3.637781,-3.637781l22.499412,0zm-11.249706,4.710494c-2.763897,0 -3.110496,0.011689 -4.195945,0.061236c-1.083239,0.049431 -1.823019,0.221451 -2.470392,0.473085c-0.669239,0.260066 -1.236766,0.608061 -1.802549,1.173785c-0.565783,0.565783 -0.913778,1.133368 -1.173843,1.802549c-0.251575,0.647373 -0.423596,1.387153 -0.473085,2.470392c-0.049489,1.085449 -0.061178,1.432048 -0.061178,4.195945c0,2.763897 0.011689,3.110496 0.061178,4.195945c0.049489,1.083239 0.22151,1.823019 0.473085,2.470392c0.260066,0.669181 0.608061,1.236766 1.173843,1.802549c0.565783,0.565783 1.13331,0.913778 1.802549,1.173843c0.647373,0.251575 1.387153,0.423596 2.470392,0.473027c1.085449,0.049547 1.432048,0.061236 4.195945,0.061236c2.763897,0 3.110496,-0.011689 4.195945,-0.061236c1.083239,-0.049431 1.823019,-0.221451 2.470392,-0.473027c0.669181,-0.260066 1.236766,-0.608061 1.802549,-1.173843c0.565783,-0.565783 0.913778,-1.133368 1.173843,-1.802549c0.251575,-0.647373 0.423596,-1.387153 0.473027,-2.470392c0.049547,-1.085449 0.061236,-1.432048 0.061236,-4.195945c0,-2.763897 -0.011689,-3.110496 -0.061236,-4.195945c-0.049431,-1.083239 -0.221451,-1.823019 -0.473027,-2.470392c-0.260066,-0.669181 -0.608061,-1.236766 -1.173843,-1.802549c-0.565783,-0.565724 -1.133368,-0.913719 -1.802549,-1.173785c-0.647373,-0.251633 -1.387153,-0.423654 -2.470392,-0.473085c-1.085449,-0.049547 -1.432048,-0.061236 -4.195945,-0.061236zm0,1.83372c2.717373,0 3.039257,0.010351 4.112377,0.059317c0.992228,0.045302 1.531085,0.2111 1.889722,0.350379c0.475062,0.18464 0.814043,0.405219 1.17018,0.761297c0.356137,0.356137 0.576657,0.695176 0.761297,1.17018c0.139338,0.358637 0.305135,0.897494 0.350379,1.889722c0.048966,1.07312 0.059375,1.395004 0.059375,4.112377c0,2.717373 -0.01041,3.039257 -0.059375,4.112377c-0.045244,0.992228 -0.211042,1.531085 -0.350379,1.889722c-0.18464,0.475062 -0.405161,0.814043 -0.761297,1.17018c-0.356137,0.356137 -0.695118,0.576657 -1.17018,0.761297c-0.358637,0.139338 -0.897494,0.305135 -1.889722,0.350379c-1.072946,0.048966 -1.39483,0.059375 -4.112377,0.059375c-2.717548,0 -3.039373,-0.01041 -4.112377,-0.059375c-0.992228,-0.045244 -1.531085,-0.211042 -1.889722,-0.350379c-0.475062,-0.18464 -0.814043,-0.405161 -1.17018,-0.761297c-0.356137,-0.356137 -0.576716,-0.695118 -0.761297,-1.17018c-0.139338,-0.358637 -0.305135,-0.897494 -0.350437,-1.889722c-0.048966,-1.07312 -0.059317,-1.395004 -0.059317,-4.112377c0,-2.717373 0.010351,-3.039257 0.059317,-4.112377c0.045302,-0.992228 0.2111,-1.531085 0.350437,-1.889722c0.184582,-0.475004 0.405161,-0.814043 0.761297,-1.17018c0.356137,-0.356078 0.695118,-0.576657 1.17018,-0.761297c0.358637,-0.139279 0.897494,-0.305077 1.889722,-0.350379c1.07312,-0.048966 1.395004,-0.059317 4.112377,-0.059317zm0,3.117242c-2.886253,0 -5.226031,2.339778 -5.226031,5.226031c0,2.886253 2.339778,5.226031 5.226031,5.226031c2.886253,0 5.226031,-2.339778 5.226031,-5.226031c0,-2.886253 -2.339778,-5.226031 -5.226031,-5.226031zm0,8.618343c-1.873555,0 -3.392311,-1.518756 -3.392311,-3.392311c0,-1.873555 1.518756,-3.392311 3.392311,-3.392311c1.873555,0 3.392311,1.518756 3.392311,3.392311c0,1.873555 -1.518756,3.392311 -3.392311,3.392311zm6.653776,-8.82479c0,0.674473 -0.546824,1.221181 -1.221297,1.221181c-0.674415,0 -1.221181,-0.546708 -1.221181,-1.221181c0,-0.674473 0.546766,-1.221239 1.221181,-1.221239c0.674473,0 1.221297,0.546766 1.221297,1.221239z"/>
 </g>
</svg>