<svg width="32" height="32" xmlns="http://www.w3.org/2000/svg">
 <title/>

 <g>
  <title>background</title>
  <rect fill="none" id="canvas_background" height="402" width="582" y="-1" x="-1"/>
 </g>
 <g>
  <title>Layer 1</title>
  <path stroke="null" id="svg_1" d="m26.204018,29.845659l-22.484754,0a3.609987,3.609987 0 0 1 -2.645895,-1.071213a3.588562,3.588562 0 0 1 -1.071213,-2.645895l0,-22.399056a3.599275,3.599275 0 0 1 1.039076,-2.656607a3.609987,3.609987 0 0 1 2.678032,-1.071213l22.495466,0a3.620699,3.620699 0 0 1 2.678032,1.071213a3.599275,3.599275 0 0 1 1.071213,2.635183l0,22.399056a3.588562,3.588562 0 0 1 -1.071213,2.645895a3.620699,3.620699 0 0 1 -2.688744,1.092637zm-5.763124,-7.187837a0.846258,0.846258 0 0 0 0.910531,-0.707l2.967259,-14.193568a0.589167,0.589167 0 0 0 -0.192818,-0.492758a0.664152,0.664152 0 0 0 -0.439197,-0.182106q-0.085697,0 -17.707145,6.545109a0.632015,0.632015 0 0 0 -0.439197,0.632015a0.610591,0.610591 0 0 0 0.460621,0.557031l4.284851,1.328304l1.724652,5.173957a0.664152,0.664152 0 0 0 0.674864,0.460621a0.599879,0.599879 0 0 0 0.428485,-0.182106l2.431653,-2.313819l4.38126,3.213638a0.964091,0.964091 0 0 0 0.514182,0.160682zm-7.830564,-2.613759l-1.296167,-4.284851q9.340974,-5.94523 9.405247,-5.94523c0.160682,0 0.246379,0 0.246379,0.171394a0.192818,0.192818 0 0 1 0,0.064273s-2.688744,2.463789 -8.055519,7.284246l-0.29994,2.710168z"/>
 </g>
</svg>