<svg width="28.999999999999996" height="28.999999999999996" xmlns="http://www.w3.org/2000/svg">

 <g>
  <title>background</title>
  <rect fill="none" id="canvas_background" height="31" width="31" y="-1" x="-1"/>
 </g>
 <g>
  <title>Layer 1</title>
  <path stroke="null" fill="#000000" id="rect3787" d="m3.046965,-0.000001c-1.688019,0 -3.046965,1.358946 -3.046965,3.046965l0,22.039711c0,1.688019 1.358946,3.046965 3.046965,3.046965l22.039713,0c1.688019,0 3.046965,-1.358946 3.046965,-3.046965l0,-22.039711c0,-1.688019 -1.358946,-3.046965 -3.046965,-3.046965l-22.039713,0zm11.800641,7.484105c0.256205,-0.001221 0.589297,0.044426 0.799829,0.190435c0.155198,0.107635 0.35932,0.232206 0.361827,0.717307c0.008207,1.587036 -0.01099,2.969454 0.012696,4.589491c0.030929,0.337212 0.250036,0.4771 0.457045,0.476089c0.207011,-0.001018 0.444503,-0.130419 0.622088,-0.304697c0.961742,-0.944234 2.069722,-3.215226 2.748616,-4.703752c0.253349,-0.555488 0.662187,-0.519844 1.123568,-0.520523c1.54471,-0.002273 2.170209,0.017266 3.618271,0.025391c0.265175,0.001424 0.496259,0.225419 0.571306,0.387219c0.064805,0.13972 0.111258,0.544463 -0.241218,1.117221c-1.08435,1.762015 -2.081286,3.180936 -3.288183,4.8561c-0.076123,0.105659 -0.148456,0.231624 -0.146,0.361827c0.002256,0.119063 0.063954,0.237432 0.146,0.323741c1.07608,1.13199 2.199357,2.271085 3.300879,3.516705c0.324545,0.367001 0.120776,0.933173 0.031739,1.091829c-0.067449,0.12019 -0.372111,0.430008 -0.577653,0.431653c-0.748552,0.005992 -0.750439,0 -3.88488,0c-0.464179,0 -0.649475,-0.13558 -0.895046,-0.393567c-1.086765,-1.141708 -0.952845,-1.003792 -2.145571,-2.278876c-0.154951,-0.165649 -0.462073,-0.373808 -0.755393,-0.241218c-0.248971,0.112542 -0.704611,0.278608 -0.704611,0.73635c0,0.488323 0,1.115407 0,1.599656c0,0.290528 -0.455876,0.507827 -0.730002,0.507827c-0.647102,0 -1.163571,0 -2.132876,0c-1.004097,0 -1.873231,-0.242122 -2.35505,-0.476088c-2.0758,-1.007988 -3.309894,-2.411829 -4.659317,-4.748187c-1.152285,-1.995037 -2.154941,-3.95924 -3.142182,-6.017756c-0.110296,-0.229983 -0.188673,-0.73635 0.634784,-0.73635c0.86996,0 1.685817,-0.019034 3.008878,-0.019034c0.388405,0 0.629984,0.078204 0.793481,0.196783c0.163496,0.118578 0.243905,0.276648 0.32374,0.425306c1.646038,3.065015 1.649779,3.2526 2.82479,4.773578c0.110314,0.142795 0.269397,0.164404 0.387219,0.165044c0.145594,0.00081 0.280249,-0.022845 0.393566,-0.114261c0.237881,-0.191906 0.304696,-0.397474 0.304696,-0.691915c0,-1.03179 0,-1.802643 0,-3.097748c0,-0.355193 -0.240605,-0.881737 -0.507827,-1.047394c-0.276841,-0.159359 -0.731869,-0.317246 -0.717306,-0.514176c0.015925,-0.215388 0.517155,-0.577654 1.409221,-0.577654c1.066558,0 1.822443,-0.00081 3.008878,-0.006337l0,-0.00002z"/>
 </g>
</svg>